Coordinates
version=1
nRows=8
nColumns=40
inDegrees=yes

Units are S.I. units (second, meters, Newtons, ...)
If the header above contains a line with 'inDegrees', this indicates whether rotational values are in degrees (yes) or radians (no).

endheader
time	pelvis_tilt	pelvis_list	pelvis_rotation	pelvis_tx	pelvis_ty	pelvis_tz	hip_flexion_r	hip_adduction_r	hip_rotation_r	knee_angle_r	knee_angle_r_beta	ankle_angle_r	subtalar_angle_r	mtp_angle_r	hip_flexion_l	hip_adduction_l	hip_rotation_l	knee_angle_l	knee_angle_l_beta	ankle_angle_l	subtalar_angle_l	mtp_angle_l	lumbar_extension	lumbar_bending	lumbar_rotation	arm_flex_r	arm_add_r	arm_rot_r	elbow_flex_r	pro_sup_r	wrist_flex_r	wrist_dev_r	arm_flex_l	arm_add_l	arm_rot_l	elbow_flex_l	pro_sup_l	wrist_flex_l	wrist_dev_l
      3.42000000	    -30.39130328	     16.68574618	     -2.28503420	     -2.00065392	      0.99455799	      0.34551603	     -1.12078394	    -15.72026257	    -11.20540316	     24.09775611	      0.42058519	    -22.22788114	      0.00000000	      0.00000000	     76.36158519	      7.93110766	     -0.55572568	     59.93443104	      1.04605316	      6.53764305	      0.00000000	      0.00000000	      4.70022826	    -12.65951816	      2.23939095	     40.26411448	      1.79632273	     29.96750315	     93.78334268	     88.18824679	      0.00000000	      0.00000000	    -52.75385170	    -32.14281799	    -28.88854323	     73.26858512	     88.27304847	      0.00000000	      0.00000000
      3.42500000	    -30.02755080	     15.75635047	     -1.83636351	     -1.96843273	      0.99689762	      0.34583987	     -1.55187520	    -14.46058642	    -10.63697411	     26.77087612	      0.46723993	    -22.65484942	      0.00000000	      0.00000000	     75.07913570	      7.64215600	     -0.32785408	     56.18588449	      0.98062868	      6.70455730	      0.00000000	      0.00000000	      4.30436298	    -12.11294632	      1.67949835	     38.98808232	      1.25196946	     29.90258053	     92.08320048	     88.05734257	      0.00000000	      0.00000000	    -51.46240198	    -31.87798960	    -28.63356451	     73.45637754	     88.15281317	      0.00000000	      0.00000000
      3.43000000	    -29.54639365	     14.82461164	     -1.40454555	     -1.93626889	      0.99931047	      0.34607803	     -1.82808189	    -13.21931214	    -10.27908475	     29.90211128	      0.52189030	    -22.74638549	      0.00000000	      0.00000000	     73.58389562	      7.37014417	     -0.21129215	     52.63778198	      0.91870261	      6.58161033	      0.00000000	      0.00000000	      3.77294956	    -11.53067928	      1.14776251	     37.65542308	      0.65321357	     29.78332589	     90.24821598	     88.01642274	      0.00000000	      0.00000000	    -49.81146819	    -31.74030340	    -27.98214463	     73.50276968	     88.12766844	      0.00000000	      0.00000000
      3.43500000	    -28.97720036	     13.91644913	     -0.98910622	     -1.90410329	      1.00166585	      0.34614917	     -1.97853729	    -12.02269877	    -10.06164451	     33.35135412	      0.58209094	    -22.55955953	      0.00000000	      0.00000000	     71.94318553	      7.12342049	     -0.20966351	     49.39439518	      0.86209483	      6.22861196	      0.00000000	      0.00000000	      3.15953197	    -10.93376456	      0.66731441	     36.23650802	      0.01989666	     29.54999220	     88.29532236	     88.05250145	      0.00000000	      0.00000000	    -47.87000580	    -31.67368937	    -27.02787777	     73.54671388	     88.16941303	      0.00000000	      0.00000000
      3.44000000	    -28.35188829	     13.06754872	     -0.56197541	     -1.87200727	      1.00395676	      0.34604422	     -2.00460139	    -10.90574130	     -9.96928864	     37.01164328	      0.64597504	    -22.15439751	      0.00000000	      0.00000000	     70.21598680	      6.91514254	     -0.36916919	     46.51366966	      0.81181668	      5.69391213	      0.00000000	      0.00000000	      2.47871552	    -10.38157941	      0.22654341	     34.74387952	     -0.66762002	     29.18123112	     86.24294173	     88.08572991	      0.00000000	      0.00000000	    -45.64960832	    -31.66808097	    -25.80314260	     73.60286835	     88.20052497	      0.00000000	      0.00000000
      3.44500000	    -27.67468614	     12.35082128	     -0.12337838	     -1.83986601	      1.00618027	      0.34588908	     -1.94195638	     -9.94433649	     -9.99558331	     40.79515722	      0.71200981	    -21.51641339	      0.00000000	      0.00000000	     68.37727969	      6.75596847	     -0.78049756	     43.94042297	      0.76690506	      4.97343872	      0.00000000	      0.00000000	      1.75873102	     -9.95817009	     -0.14004042	     33.12460557	     -1.38778864	     28.65390002	     84.21861873	     88.11548275	      0.00000000	      0.00000000	    -43.14567037	    -31.79025491	    -24.20498293	     73.57973814	     88.21626203	      0.00000000	      0.00000000
      3.45000000	    -26.89645772	     11.98654671	      0.20794188	     -1.80756283	      1.00852997	      0.34579229	     -1.82991332	     -9.45112204	    -10.18701501	     44.64572692	      0.77921493	    -20.93305876	      0.00000000	      0.00000000	     66.40242216	      6.65720908	     -1.73771741	     41.77127627	      0.72904630	      4.22929066	      0.00000000	      0.00000000	      0.95177173	     -9.91661458	     -0.02955435	     31.13280759	     -2.13938035	     27.37150925	     82.23366825	     88.16914963	      0.00000000	      0.00000000	    -40.08002718	    -32.28383773	    -21.97482628	     73.59927136	     88.21374240	      0.00000000	      0.00000000
      3.45500000	    -26.10335422	     11.20519845	      0.77966848	     -1.77544435	      1.01038725	      0.34519515	     -1.68104108	     -8.48477269	    -10.54817163	     48.48533299	      0.84622870	    -20.25065351	      0.00000000	      0.00000000	     64.48328751	      6.57794408	     -2.12528783	     40.22375419	      0.70203695	      3.56894332	      0.00000000	      0.00000000	      0.10100932	     -9.39560946	     -0.59192327	     29.44224192	     -2.74218014	     26.53239014	     79.84502148	     88.14608529	      0.00000000	      0.00000000	    -37.26254392	    -32.13768406	    -20.33633867	     73.77863810	     88.21584350	      0.00000000	      0.00000000
